HIERARCHY
ROOT Hips
{
	OFFSET 0.000000 0.000000 0.000000
	CHANNELS 6 Xposition Yposition Zposition Xrotation Yrotation Zrotation
	JOINT LeftUpLeg_virtual
	{
		OFFSET 0.000000 0.000000 0.000000
		CHANNELS 3 Xrotation Yrotation Zrotation
		JOINT LeftUpLeg
		{
			OFFSET 15.427100 -6.655098 0.678600
			CHANNELS 3 Xrotation Yrotation Zrotation
			JOINT LeftLeg
			{
				OFFSET 4.081073 -39.591068 13.024000
				CHANNELS 3 Xrotation Yrotation Zrotation
				JOINT LeftFoot
				{
					OFFSET -4.081074 -37.707932 -15.979700
					CHANNELS 3 Xrotation Yrotation Zrotation
					JOINT LeftToeBase
					{
						OFFSET 5.346399 -15.068900 20.645000
						CHANNELS 3 Xrotation Yrotation Zrotation
						JOINT LeftToe_End
						{
							OFFSET 2.754700 0.931300 11.300900
							CHANNELS 3 Xrotation Yrotation Zrotation
							End Site
							{
								OFFSET 0 0 0
							}
						}
					}
				}
			}
		}
	}
	JOINT RightUpLeg_virtual
	{
		OFFSET 0.000000 0.000000 0.000000
		CHANNELS 3 Xrotation Yrotation Zrotation
		JOINT RightUpLeg
		{
			OFFSET -15.569500 -6.655098 0.678600
			CHANNELS 3 Xrotation Yrotation Zrotation
			JOINT RightLeg
			{
				OFFSET -4.081825 -39.591045 13.023800
				CHANNELS 3 Xrotation Yrotation Zrotation
				JOINT RightFoot
				{
					OFFSET 4.081824 -37.707954 -15.979600
					CHANNELS 3 Xrotation Yrotation Zrotation
					JOINT RightToeBase
					{
						OFFSET -5.346400 -15.068900 20.645000
						CHANNELS 3 Xrotation Yrotation Zrotation
						JOINT RightToe_End
						{
							OFFSET -2.754700 0.931300 11.300900
							CHANNELS 3 Xrotation Yrotation Zrotation
							End Site
							{
								OFFSET 0 0 0
							}
						}
					}
				}
			}
		}
	}
	JOINT Spine_virtual
	{
		OFFSET 0.000000 0.000000 0.000000
		CHANNELS 3 Xrotation Yrotation Zrotation
		JOINT Spine
		{
			OFFSET -0.279200 12.230698 -2.892100
			CHANNELS 3 Xrotation Yrotation Zrotation
			JOINT Spine1
			{
				OFFSET -0.232667 10.192268 -1.242267
				CHANNELS 3 Xrotation Yrotation Zrotation
				JOINT Spine1_split
				{
					OFFSET -0.232667 10.192268 -1.242267
					CHANNELS 3 Xrotation Yrotation Zrotation
					JOINT Spine2
					{
						OFFSET -0.232667 10.192268 -1.242267
						CHANNELS 3 Xrotation Yrotation Zrotation
						JOINT Neck_virtual
						{
							OFFSET 0.000000 0.000000 0.000000
							CHANNELS 3 Xrotation Yrotation Zrotation
							JOINT Neck
							{
								OFFSET -0.418800 17.814194 8.416900
								CHANNELS 3 Xrotation Yrotation Zrotation
								JOINT Head
								{
									OFFSET 0.000000 7.031097 3.806800
									CHANNELS 3 Xrotation Yrotation Zrotation
									JOINT HeadTop_End
									{
										OFFSET 0.000000 24.646606 12.978600
										CHANNELS 3 Xrotation Yrotation Zrotation
										End Site
										{
											OFFSET 0 0 0
										}
									}
								}
							}
						}
						JOINT LeftShoulder_virtual
						{
							OFFSET 0.000000 0.000000 0.000000
							CHANNELS 3 Xrotation Yrotation Zrotation
							JOINT LeftShoulder
							{
								OFFSET 8.476499 7.247704 -3.868750
								CHANNELS 3 Xrotation Yrotation Zrotation
								JOINT LeftShoulder_split
								{
									OFFSET 8.476499 7.247704 -3.868750
									CHANNELS 3 Xrotation Yrotation Zrotation
									JOINT LeftArm
									{
										OFFSET 9.308998 -2.777710 0.208600
										CHANNELS 3 Xrotation Yrotation Zrotation
										JOINT LeftForeArm
										{
											OFFSET 29.972298 0.000000 0.000000
											CHANNELS 3 Xrotation Yrotation Zrotation
											JOINT LeftHand
											{
												OFFSET 26.026505 0.000000 0.000000
												CHANNELS 3 Xrotation Yrotation Zrotation
												End Site
												{
													OFFSET 0 0 0
												}
											}
										}
									}
								}
							}
						}
						JOINT RightShoulder_virtual
						{
							OFFSET 0.000000 0.000000 0.000000
							CHANNELS 3 Xrotation Yrotation Zrotation
							JOINT RightShoulder
							{
								OFFSET -7.570500 7.247704 -3.868750
								CHANNELS 3 Xrotation Yrotation Zrotation
								JOINT RightShoulder_split
								{
									OFFSET -7.570500 7.247704 -3.868750
									CHANNELS 3 Xrotation Yrotation Zrotation
									JOINT RightArm
									{
										OFFSET -9.308998 -2.777710 0.208500
										CHANNELS 3 Xrotation Yrotation Zrotation
										JOINT RightForeArm
										{
											OFFSET -29.972300 0.000000 0.000000
											CHANNELS 3 Xrotation Yrotation Zrotation
											JOINT RightHand
											{
												OFFSET -26.026505 0.000000 0.000000
												CHANNELS 3 Xrotation Yrotation Zrotation
												End Site
												{
													OFFSET 0 0 0
												}
											}
										}
									}
								}
							}
						}
					}
				}
			}
		}
	}
}
MOTION
Frames: 4
Frame Time: 0.03333333
3.615308 81.823692 -22.067711 0.000000 0.000000 0.000000 0.491173 -42.632429 -0.319222 -43.760711 15.621259 42.932872 52.301576 3.956142 -2.000874 14.049086 4.712967 -21.479492 -16.359510 -2.967405 -7.380578 0.000000 0.000000 0.000000 1.480331 -41.851943 0.187182 -25.790702 -18.740823 -27.835630 35.941282 13.142244 2.364224 -11.212966 -8.223077 32.453821 6.031956 5.725746 -16.514634 0.000000 0.000000 0.000000 3.024944 -36.697097 -0.002146 12.863022 1.202034 -4.550588 5.653232 0.533283 -2.928152 0.023314 -0.798092 0.206229 0.000000 0.000000 0.000000 8.048585 4.077518 -1.461109 -8.765403 3.554584 14.236787 -140.989803 -51.657366 -155.792722 0.000000 0.000000 0.000000 7.861657 1.197590 -1.614858 4.903980 1.777342 -9.988590 3.571233 -12.944390 -1.534136 18.497730 12.717029 -57.098879 -47.902555 -47.038475 -28.517213 0.000000 0.000000 0.000000 3.869617 -0.316733 -2.563443 -8.950434 9.611673 6.674689 -9.259526 -10.175624 4.095280 31.123225 16.123257 34.878347 -25.348703 44.395977 40.113219 0.000000 0.000000 0.000000 
3.594829 80.577385 -21.470268 0.000000 0.000000 0.000000 2.122202 -46.735867 1.525568 -41.274936 10.244915 38.546712 50.943103 2.402052 -0.418909 8.918383 2.911694 -22.761938 -14.831310 -2.946747 -6.242158 0.000000 0.000000 0.000000 3.406023 -46.479243 2.473240 -29.199018 -15.164340 -28.390316 37.859465 15.143767 1.366108 -11.966567 -8.042948 34.165395 7.674179 5.959591 -17.460740 0.000000 0.000000 0.000000 3.145124 -41.468534 1.311059 12.577803 2.074920 -5.039234 4.816503 0.701581 -3.160283 0.025548 -0.395943 0.106492 0.000000 0.000000 0.000000 7.253871 4.108530 -2.242953 -3.977494 4.213988 12.084270 -132.319247 -59.266965 -147.127302 0.000000 0.000000 0.000000 6.550301 1.206344 -1.981897 4.705023 0.090037 -12.967756 4.200320 -12.468580 -2.200506 4.788389 19.498966 -51.259118 -33.087591 -44.953836 -16.603408 0.000000 0.000000 0.000000 2.591229 -0.110575 -2.462399 -7.592330 10.804587 4.800274 -6.975691 -9.620200 3.549689 27.230188 14.931468 38.717658 -18.772147 38.905447 31.774754 0.000000 0.000000 0.000000 
3.508706 79.537224 -20.531967 0.000000 0.000000 0.000000 4.010948 -50.594729 3.962061 -38.342530 7.371063 34.387492 47.932007 0.840250 0.586470 2.835685 2.470762 -23.910571 -10.555181 -3.150277 -4.335403 0.000000 0.000000 0.000000 5.364303 -50.514471 5.093384 -31.972594 -11.535571 -28.671553 39.611668 16.482013 0.257056 -12.403645 -8.803353 34.649485 9.075113 5.938348 -17.582362 0.000000 0.000000 0.000000 2.954301 -45.530919 2.501907 12.867978 3.193408 -5.538330 4.363461 0.916059 -3.078723 0.063829 -0.165339 0.035682 0.000000 0.000000 0.000000 6.684620 4.295341 -2.647733 0.612812 5.410723 9.010001 -115.686998 -66.372220 -129.935265 0.000000 0.000000 0.000000 5.472958 1.257916 -2.088428 4.293807 -1.834715 -15.488791 4.570457 -11.307617 -2.487891 -7.884148 23.707525 -44.896148 -20.487552 -41.925750 -7.225840 0.000000 0.000000 0.000000 1.397120 0.193723 -2.079288 -6.028555 11.768650 2.837055 -4.612431 -8.803950 3.766964 24.486927 12.158310 41.908641 -14.542484 34.907902 25.827556 0.000000 0.000000 0.000000 
3.491444 78.645866 -19.204414 0.000000 0.000000 0.000000 5.862333 -53.829383 6.499606 -35.651272 6.216810 31.256687 44.659530 -0.793248 0.920040 -1.656401 2.874843 -25.138909 -5.639463 -3.219350 -2.345255 0.000000 0.000000 0.000000 6.889627 -53.374834 7.300571 -33.582869 -8.689879 -28.986534 40.761165 17.331550 -0.779764 -12.436532 -10.064271 34.671785 9.608047 5.853768 -17.017894 0.000000 0.000000 0.000000 2.381931 -48.356855 3.364636 13.663794 4.355065 -5.876840 4.235759 1.061535 -2.789687 0.121296 -0.109694 0.062147 0.000000 0.000000 0.000000 6.353448 4.542010 -2.692736 4.629069 6.822245 5.322026 -87.014766 -69.907847 -100.464317 0.000000 0.000000 0.000000 4.748071 1.289230 -1.999601 3.796174 -3.761616 -17.411079 4.987756 -10.289992 -2.203952 -18.700513 25.448441 -39.235585 -10.775271 -37.919899 -0.637489 0.000000 0.000000 0.000000 0.342441 0.452983 -1.560910 -4.422567 12.263979 1.176677 -2.458939 -7.060117 4.501939 23.017903 8.427475 43.848858 -11.948305 32.956496 21.514232 0.000000 0.000000 0.000000 
